<svg width="114" height="40" viewBox="0 0 114 40" fill="none" xmlns="http://www.w3.org/2000/svg">
<g clip-path="url(#clip0_2202_361)">
<path d="M32.8408 32.6616C33.4711 32.6616 33.993 32.8751 34.4115 33.2968C34.8403 33.7185 35.0469 34.2443 35.0469 34.8691C35.0469 35.4938 34.8403 36.0092 34.4115 36.4413C33.993 36.863 33.4711 37.0765 32.8408 37.0765H31.482V39.3776H30.3867V32.6668H32.8408V32.6616ZM32.8408 36.0353C33.4866 36.0353 33.9516 35.5459 33.9516 34.8639C33.9516 34.1818 33.4866 33.6925 32.8408 33.6925H31.482V36.03H32.8408V36.0353Z" fill="#103559"/>
<path d="M36.6956 37.4563C36.854 38.1287 37.4712 38.4986 38.3069 38.4986C38.8804 38.4986 39.3119 38.3113 39.6069 37.951L40.5026 38.4121C40.011 39.0558 39.2737 39.3776 38.3014 39.3776C37.4876 39.3776 36.8212 39.1566 36.3187 38.7243C35.8162 38.2824 35.5649 37.7253 35.5649 37.0528C35.5649 36.3803 35.8162 35.8424 36.3078 35.4005C36.7994 34.949 37.4439 34.728 38.2195 34.728C38.9514 34.728 39.5577 34.9586 40.0274 35.4101C40.5026 35.8616 40.743 36.4188 40.743 37.0624C40.743 37.1585 40.732 37.293 40.7047 37.4611H36.701L36.6956 37.4563ZM39.6451 36.6781C39.4922 35.9625 38.9186 35.5878 38.2086 35.5878C37.4057 35.5878 36.8431 36.0057 36.6901 36.6781H39.6451Z" fill="#103559"/>
<path d="M43.8495 35.5224H42.661V37.83C42.661 38.4461 43.0624 38.4357 43.8495 38.3991V39.3337C42.2648 39.5268 41.6236 39.0935 41.6236 37.8353V35.5276H40.7427V34.5252H41.6236V33.4863L42.661 33.1782V34.5252H43.8495V35.5276V35.5224Z" fill="#103559"/>
<path d="M46.4042 36.6369C47.1044 36.7859 48.0117 37.0696 47.992 38.0169C47.992 38.44 47.8194 38.7766 47.4841 39.017C47.1488 39.2574 46.7296 39.3776 46.2217 39.3776C45.3243 39.3776 44.6586 38.9881 44.3677 38.3438L45.2109 37.8678C45.3637 38.2909 45.699 38.5073 46.2168 38.5073C46.7346 38.5073 46.991 38.339 46.991 38.012C46.991 37.7284 46.6113 37.5601 46.128 37.4447C45.4476 37.2764 44.5304 37.0119 44.5501 36.0791C44.5501 35.6704 44.703 35.3435 45.0235 35.0983C45.3391 34.8482 45.7434 34.728 46.2119 34.728C46.9663 34.728 47.5728 35.0742 47.8934 35.6512L47.0649 36.1032C46.9121 35.7666 46.6212 35.5983 46.2119 35.5983C45.8421 35.5983 45.5511 35.757 45.5511 36.0695C45.5511 36.3628 45.9308 36.5119 46.4042 36.6465V36.6369Z" fill="#103559"/>
<path d="M54.2059 33.6492C53.3901 33.5827 52.9934 33.8945 52.9934 34.5792V34.6712H54.2059V35.6523H52.9934V39.3776H51.8814V35.6523H51.0991V34.6712H51.8814V34.5792C51.8814 33.2915 52.6861 32.5863 54.2059 32.668V33.6492Z" fill="#103559"/>
<path d="M55.4796 38.7051C54.9788 38.2536 54.7231 37.706 54.7231 37.0528C54.7231 36.3996 54.9788 35.852 55.4796 35.4005C55.9804 34.949 56.5983 34.728 57.3122 34.728C58.026 34.728 58.644 34.949 59.1447 35.4005C59.6455 35.852 59.9012 36.3996 59.9012 37.0528C59.9012 37.706 59.6455 38.2536 59.1447 38.7051C58.644 39.1566 58.0367 39.3776 57.3122 39.3776C56.5877 39.3776 55.9804 39.1566 55.4796 38.7051ZM57.3122 38.4506C57.7437 38.4506 58.1059 38.3161 58.3989 38.0519C58.6919 37.7877 58.8411 37.4515 58.8411 37.0528C58.8411 36.6541 58.6919 36.3179 58.3989 36.0537C58.1059 35.7895 57.7437 35.6551 57.3122 35.6551C56.8807 35.6551 56.5184 35.7895 56.2254 36.0537C55.9324 36.3179 55.7833 36.6541 55.7833 37.0528C55.7833 37.4515 55.9324 37.7877 56.2254 38.0519C56.5184 38.3161 56.8807 38.4506 57.3122 38.4506Z" fill="#103559"/>
<path d="M61.4856 35.5766C61.7537 35.0109 62.2682 34.728 63.008 34.728V35.7949C62.6059 35.7651 62.2468 35.8594 61.9413 36.0678C61.6357 36.2713 61.4856 36.6087 61.4856 37.0751V39.3776H60.4189V34.8074H61.4856V35.5766V35.5766Z" fill="#103559"/>
<path d="M70.775 37.4603C70.775 38.0073 70.5913 38.4658 70.2191 38.8306C69.8469 39.1953 69.3953 39.3776 68.8593 39.3776H66.1147V32.6616H68.6558C69.1769 32.6616 69.6236 32.844 69.9809 33.1983C70.3482 33.5526 70.5268 33.9954 70.5268 34.5217C70.5268 35.1052 70.3084 35.5585 69.8767 35.892C70.4325 36.1994 70.77 36.7569 70.77 37.4551L70.775 37.4603ZM67.1669 33.6985V35.4647H68.6558C69.1223 35.4647 69.4796 35.0792 69.4796 34.5842C69.4796 34.0892 69.1223 33.7037 68.6558 33.7037H67.1669V33.6985ZM68.8593 38.3408C69.3456 38.3408 69.7278 37.9292 69.7278 37.403C69.7278 36.8767 69.3456 36.4651 68.8593 36.4651H67.1669V38.346H68.8593V38.3408Z" fill="#103559"/>
<path d="M72.94 37.4563C73.0982 38.1287 73.7148 38.4986 74.5496 38.4986C75.1225 38.4986 75.5536 38.3113 75.8482 37.951L76.743 38.4121C76.252 39.0558 75.5154 39.3776 74.5441 39.3776C73.7312 39.3776 73.0655 39.1566 72.5635 38.7243C72.0615 38.2824 71.8105 37.7253 71.8105 37.0528C71.8105 36.3803 72.0615 35.8424 72.5526 35.4005C73.0437 34.949 73.6875 34.728 74.4623 34.728C75.1935 34.728 75.7991 34.9586 76.2738 35.4101C76.7485 35.8616 76.9886 36.4188 76.9886 37.0624C76.9886 37.1585 76.9777 37.293 76.9504 37.4611H72.9509L72.94 37.4563ZM75.8864 36.6781C75.7336 35.9625 75.1607 35.5878 74.4514 35.5878C73.6493 35.5878 73.0873 36.0057 72.9345 36.6781H75.8919H75.8864Z" fill="#103559"/>
<path d="M79.0253 36.6369C79.7255 36.7859 80.6328 37.0696 80.6131 38.0169C80.6131 38.44 80.4405 38.7766 80.1052 39.017C79.7699 39.2574 79.3507 39.3776 78.8428 39.3776C77.9454 39.3776 77.2797 38.9881 76.9888 38.3438L77.832 37.8678C77.9848 38.2909 78.3201 38.5073 78.8379 38.5073C79.3557 38.5073 79.6121 38.339 79.6121 38.012C79.6121 37.7284 79.2324 37.5601 78.7491 37.4447C78.0687 37.2764 77.1515 37.0119 77.1712 36.0791C77.1712 35.6704 77.3241 35.3435 77.6446 35.0983C77.9602 34.8482 78.3645 34.728 78.833 34.728C79.5874 34.728 80.1939 35.0742 80.5144 35.6512L79.686 36.1032C79.5332 35.7666 79.2422 35.5983 78.833 35.5983C78.4631 35.5983 78.1722 35.757 78.1722 36.0695C78.1722 36.3628 78.5519 36.5119 79.0253 36.6465V36.6369Z" fill="#103559"/>
<path d="M84.2382 35.5224H83.0516V37.83C83.0516 38.4461 83.4523 38.4357 84.2382 38.3991V39.3337C82.6561 39.5268 82.016 39.0935 82.016 37.8353V35.5276H81.1313V34.5252H82.016V33.4863L83.0516 33.1782V34.5252H84.2382V35.5276V35.5224Z" fill="#103559"/>
<path d="M25.4002 3.78639C25.2647 2.45021 24.7278 2.18091 23.6854 2.18091H19.2447C18.27 2.18091 18.0355 2.34664 17.6654 3.41868L14.3349 14.2479L11.0044 3.41868C10.6343 2.34664 10.3998 2.18091 9.42514 2.18091H4.97924C3.93682 2.18091 3.39998 2.45021 3.26447 3.78639L0.908607 25.046C0.809577 25.8125 0.877334 26.1181 1.54969 26.2165L6.63147 26.9519C7.40286 27.0503 7.57486 26.8846 7.67388 26.3149L8.78406 16.3557L11.1712 25.683C11.4057 26.4495 11.708 26.7551 12.4846 26.7551H16.1852C16.9566 26.7551 17.2641 26.4547 17.4987 25.683L19.8545 16.3557L20.996 26.3149C21.095 26.8846 21.267 27.0503 22.0384 26.9519L27.1202 26.2165C27.7925 26.1181 27.8603 25.8177 27.7612 25.046L25.4002 3.78639Z" fill="#103559"/>
<path d="M37.6361 7.86377C31.933 7.86377 28.8335 11.7728 28.8335 17.1629C28.8335 22.553 31.933 26.462 37.6361 26.462C43.3392 26.462 46.4388 22.553 46.4388 17.1629C46.4388 11.7728 43.3392 7.86377 37.6361 7.86377ZM37.6361 20.3796C36.2672 20.3796 35.5336 19.097 35.5336 17.1578C35.5336 15.2186 36.2672 13.9359 37.6361 13.9359C39.0051 13.9359 39.7386 15.2186 39.7386 17.1578C39.7386 19.097 39.0051 20.3796 37.6361 20.3796Z" fill="#103559"/>
<path d="M59.2283 7.87409C58.0592 7.87409 49.3116 8.10638 48.7426 8.90647C48.5098 9.17488 48.5098 9.54138 48.5098 10.1711L48.7788 24.6966C48.8098 26.0284 49.115 26.462 50.2789 26.462H54.3553C55.5244 26.462 55.8555 26.0284 55.8555 24.6966V14.6671C56.3572 14.5019 56.5228 14.4348 57.0918 14.3987C57.8574 14.3677 58.2247 14.6 58.4627 15.2298C58.6282 15.8956 58.6644 16.897 58.6644 18.2598L58.6334 24.6915C58.6334 26.0232 59.0007 26.4568 60.1698 26.4568H64.3444C65.5135 26.4568 65.8135 26.0232 65.8446 24.6915L66.1136 15.8285C66.1446 13.6605 65.679 11.6629 64.5772 10.1969C63.4081 8.73096 61.6699 7.86377 59.2335 7.86377L59.2283 7.87409Z" fill="#103559"/>
<path d="M74.8961 9.93042H70.7C69.5519 9.93042 69.2217 10.3264 69.2217 11.6582V24.7036C69.2217 26.0302 69.5519 26.4622 70.7 26.4622H74.9621C76.1102 26.4622 76.4709 26.0302 76.4709 24.7036L76.4049 11.6582C76.4049 10.3624 76.0442 9.93042 74.8961 9.93042V9.93042Z" fill="#103559"/>
<path d="M73.1052 1.14795C70.62 1.14795 69.2217 2.67832 69.2217 4.76427C69.2217 6.85022 70.62 8.38059 73.1052 8.38059C75.5904 8.38059 76.9887 6.85022 76.9887 4.76427C76.9887 2.67832 75.5904 1.14795 73.1052 1.14795V1.14795Z" fill="#103559"/>
<path d="M91.1245 8.40481H88.5434V3.91349C88.5434 2.58312 88.2017 2.18091 87.0189 2.18091H83.0132C81.8251 2.18091 81.4519 2.61405 81.4519 3.91349V8.40481H79.4175C78.2978 8.40481 78.0244 8.60591 78.0244 9.63721V13.2674C78.0244 14.2987 78.2978 14.4998 79.4175 14.4998H81.4519V20.8217C81.4519 25.0809 83.7229 26.9785 88.002 26.9785C89.2583 26.9785 90.5147 26.8806 91.7028 26.6434C92.2127 26.5454 92.3494 26.4113 92.3494 25.9111L92.1812 20.8165C92.1812 20.3834 91.9446 20.2184 91.503 20.3163C91.1298 20.4143 90.7566 20.4813 90.2466 20.4813C89.2636 20.4813 88.5487 20.1462 88.5487 18.7178V14.4895H91.1298C92.2495 14.4895 92.5229 14.2884 92.5229 13.2571V9.6269C92.5229 8.5956 92.2495 8.39449 91.1298 8.39449L91.1245 8.40481Z" fill="#103559"/>
<path d="M102.361 7.86377C96.6581 7.86377 93.5586 11.7728 93.5586 17.1629C93.5586 22.553 96.6581 26.462 102.361 26.462C108.064 26.462 111.164 22.553 111.164 17.1629C111.164 11.7728 108.064 7.86377 102.361 7.86377ZM102.361 20.3796C100.992 20.3796 100.259 19.097 100.259 17.1578C100.259 15.2186 100.992 13.9359 102.361 13.9359C103.73 13.9359 104.464 15.2186 104.464 17.1578C104.464 19.097 103.73 20.3796 102.361 20.3796Z" fill="#103559"/>
<path d="M112.801 8.59236C112.202 8.16071 111.222 8.4101 110.603 9.1487C109.984 9.8873 109.969 10.8369 110.562 11.2686C111.16 11.7002 112.14 11.4508 112.759 10.7122C113.378 9.97363 113.394 9.024 112.801 8.59236V8.59236Z" fill="#103559"/>
<path d="M98.7201 7.33655C99.4234 7.22855 99.8842 6.33883 99.7484 5.34626C99.6126 4.35368 98.9384 3.63368 98.2351 3.74168C97.5318 3.84968 97.071 4.7394 97.2068 5.73197C97.3426 6.72455 98.0168 7.44455 98.7201 7.33655Z" fill="#103559"/>
<path d="M107.833 8.24897C108.806 8.74014 110.279 7.81119 111.117 6.17219C111.956 4.53318 111.849 2.80342 110.87 2.31225C109.897 1.82108 108.424 2.75003 107.586 4.38903C106.747 6.02804 106.855 7.7578 107.833 8.24897Z" fill="#103559"/>
<path d="M102.796 6.82238C103.776 6.94717 104.728 5.6628 104.917 3.95725C105.106 2.24649 104.466 0.764522 103.48 0.639725C102.5 0.514928 101.548 1.7993 101.359 3.50486C101.17 5.21561 101.81 6.69758 102.796 6.82238Z" fill="#103559"/>
</g>
<defs>
<clipPath id="clip0_2202_361">
<rect width="112.881" height="39.2629" fill="white" transform="translate(0.87207 0.631348)"/>
</clipPath>
</defs>
</svg>
