<svg width="21" height="21" viewBox="0 0 21 21" fill="none" xmlns="http://www.w3.org/2000/svg">
<path d="M18.6072 17.0438L15.5725 14.0337C16.7505 12.5649 17.3209 10.7006 17.1666 8.82421C17.0122 6.94777 16.1448 5.20178 14.7427 3.94526C13.3405 2.68873 11.5103 2.01718 9.6282 2.06868C7.74613 2.12018 5.95532 2.89082 4.624 4.22214C3.29267 5.55346 2.52203 7.34427 2.47053 9.22634C2.41903 11.1084 3.09059 12.9387 4.34711 14.3408C5.60364 15.743 7.34963 16.6104 9.22606 16.7647C11.1025 16.9191 12.9668 16.3486 14.4355 15.1706L17.4457 18.1808C17.5217 18.2575 17.6122 18.3183 17.7119 18.3599C17.8115 18.4014 17.9185 18.4228 18.0264 18.4228C18.1344 18.4228 18.2413 18.4014 18.341 18.3599C18.4407 18.3183 18.5312 18.2575 18.6072 18.1808C18.7546 18.0283 18.837 17.8244 18.837 17.6123C18.837 17.4002 18.7546 17.1963 18.6072 17.0438V17.0438ZM9.84666 15.1706C8.7142 15.1706 7.60717 14.8348 6.66556 14.2057C5.72395 13.5765 4.99005 12.6823 4.55668 11.636C4.1233 10.5897 4.00991 9.43846 4.23084 8.32775C4.45178 7.21705 4.99711 6.1968 5.79788 5.39603C6.59866 4.59525 7.6189 4.04992 8.72961 3.82899C9.84031 3.60806 10.9916 3.72145 12.0378 4.15482C13.0841 4.5882 13.9784 5.32209 14.6075 6.2637C15.2367 7.20531 15.5725 8.31234 15.5725 9.44481C15.5725 10.9634 14.9692 12.4198 13.8954 13.4936C12.8216 14.5674 11.3652 15.1706 9.84666 15.1706V15.1706Z" fill="#667479"/>
</svg>
